<svg width="32" height="62" viewBox="0 0 32 62" fill="none" xmlns="http://www.w3.org/2000/svg">
<path d="M10.6464 32.7764L14.4197 29.003L6.16636 20.763C5.52636 20.123 4.41969 20.2964 4.01969 21.123C3.07302 23.1097 3.41969 25.5497 5.05969 27.203L10.6464 32.7764ZM19.6864 30.363C21.7264 31.3097 24.593 30.643 26.713 28.523C29.2597 25.9764 29.753 22.323 27.793 20.363C25.8464 18.4164 22.193 18.8964 19.633 21.443C17.513 23.563 16.8464 26.4297 17.793 28.4697L5.71302 40.5497C5.46372 40.799 5.32366 41.1371 5.32366 41.4897C5.32366 41.8423 5.46372 42.1804 5.71302 42.4297C5.96233 42.679 6.30046 42.819 6.65302 42.819C7.00559 42.819 7.34372 42.679 7.59302 42.4297L15.8464 34.203L24.0864 42.443C24.2098 42.5665 24.3563 42.6644 24.5176 42.7312C24.6789 42.798 24.8518 42.8324 25.0264 42.8324C25.2009 42.8324 25.3738 42.798 25.5351 42.7312C25.6964 42.6644 25.8429 42.5665 25.9664 42.443C26.0898 42.3196 26.1877 42.173 26.2545 42.0117C26.3213 41.8505 26.3557 41.6776 26.3557 41.503C26.3557 41.3284 26.3213 41.1556 26.2545 40.9943C26.1877 40.833 26.0898 40.6865 25.9664 40.563L17.7264 32.323L19.6864 30.363Z" fill="#02E4C0"/>
</svg>
