<svg width="34" height="61" viewBox="0 0 34 61" fill="none" xmlns="http://www.w3.org/2000/svg">
<path d="M14.5495 29.2274C16.0285 31.6874 15.811 34.5824 14.042 35.7524C12.273 36.8924 9.634 35.8274 8.1405 33.3674C6.6615 30.9074 6.8935 27.9824 8.6625 26.8424C10.4315 25.7024 13.0705 26.7674 14.5495 29.2274ZM17 39.4574C19.9 39.4574 20.625 38.3324 20.625 38.3324C20.625 38.3324 19.9 41.3324 17 41.3324C14.1 41.3324 13.375 38.3774 13.375 38.3324C13.375 38.3324 14.1 39.4574 17 39.4574ZM25.3375 26.8424C27.1065 27.9824 27.3385 30.9074 25.8595 33.3674C24.366 35.8274 21.727 36.8924 19.958 35.7524C18.189 34.5824 17.9715 31.6874 19.4505 29.2274C20.9295 26.7674 23.5685 25.7024 25.3375 26.8424ZM17 42.8324C20.625 42.8324 28.6 35.1224 28.6 29.3324C28.6 23.5424 23.3945 18.8324 17 18.8324C10.6055 18.8324 5.4 23.5424 5.4 29.3324C5.4 35.1224 13.375 42.8324 17 42.8324ZM17 15.8324C24.975 15.8324 31.5 21.8924 31.5 29.3324C31.5 35.4524 23.264 45.8324 17 45.8324C10.736 45.8324 2.5 35.4524 2.5 29.3324C2.5 21.8924 9.025 15.8324 17 15.8324Z" fill="#02E4C0"/>
</svg>
