<svg width="42" height="54" viewBox="0 0 42 54" fill="none" xmlns="http://www.w3.org/2000/svg">
<g clip-path="url(#clip0_62_2518)">
<path d="M32.275 17.8326C29.815 17.8326 27.4917 18.8214 25.8346 20.5342L13.825 31.5528C12.7317 32.6829 11.2796 33.3009 9.725 33.3009C6.53042 33.3009 3.91667 30.6346 3.91667 27.3325C3.91667 24.0305 6.53042 21.3642 9.725 21.3642C11.2796 21.3642 12.7317 21.9822 13.8933 23.1829L15.8238 24.9487L18.4375 22.5826L16.2508 20.6225C15.3953 19.7349 14.3782 19.0313 13.2581 18.5525C12.1379 18.0736 10.9371 17.8289 9.725 17.8326C4.63417 17.8326 0.5 22.1058 0.5 27.3325C0.5 32.5593 4.63417 36.8325 9.725 36.8325C12.185 36.8325 14.5083 35.8437 16.1654 34.1309L28.175 23.1123C29.2683 21.9822 30.7204 21.3642 32.275 21.3642C35.4696 21.3642 38.0833 24.0305 38.0833 27.3325C38.0833 30.6346 35.4696 33.3009 32.275 33.3009C30.7375 33.3009 29.2683 32.6829 28.1067 31.4822L26.125 29.6987L23.5625 32.0649L25.7492 34.0426C26.607 34.9257 27.625 35.6252 28.7448 36.1009C29.8646 36.5767 31.0643 36.8193 32.275 36.8149C37.3658 36.8149 41.5 32.5593 41.5 27.3325C41.5 22.0352 37.3658 17.8326 32.275 17.8326Z" fill="#02E4C0"/>
</g>
<defs>
<clipPath id="clip0_62_2518">
<rect width="41" height="53" fill="white" transform="translate(0.5 0.83252)"/>
</clipPath>
</defs>
</svg>
